<?xml version="1.0" encoding="UTF-8" standalone="no"?>
<svg
   viewBox="20 35 68 38"
   version="1.1"
   id="svg4"
   sodipodi:docname="RDVR.svg"
   xml:space="preserve"
   inkscape:version="1.4 (86a8ad7, 2024-10-11)"
   xmlns:inkscape="http://www.inkscape.org/namespaces/inkscape"
   xmlns:sodipodi="http://sodipodi.sourceforge.net/DTD/sodipodi-0.dtd"
   xmlns="http://www.w3.org/2000/svg"
   xmlns:svg="http://www.w3.org/2000/svg"><defs
     id="defs4" /><sodipodi:namedview
     id="namedview4"
     pagecolor="#ffffff"
     bordercolor="#000000"
     borderopacity="0.25"
     inkscape:showpageshadow="2"
     inkscape:pageopacity="0.0"
     inkscape:pagecheckerboard="0"
     inkscape:deskcolor="#d1d1d1"
     inkscape:zoom="24.591603"
     inkscape:cx="40.237312"
     inkscape:cy="60.528792"
     inkscape:window-width="3840"
     inkscape:window-height="2126"
     inkscape:window-x="-11"
     inkscape:window-y="-11"
     inkscape:window-maximized="1"
     inkscape:current-layer="svg4" /><rect
     x="21"
     y="36"
     width="66"
     height="36"
     rx="18"
     fill="#f0f0f5"
     stroke="#e0e0e5"
     stroke-width="2"
     id="rect1" /><path
     style="fill:#2f3542;fill-opacity:1;stroke-width:0.0414058"
     d="m 52.639729,65.338088 c -3.274515,-0.3925 -6.157813,-2.049321 -8.135713,-4.675002 -0.914497,-1.214004 -1.60587,-2.636434 -1.987085,-4.08823 -0.768619,-2.92715 -0.383664,-6.094853 1.057209,-8.699513 0.590086,-1.066697 1.175649,-1.836666 2.084282,-2.740663 1.911037,-1.90129 4.3378,-3.065791 7.043416,-3.37984 0.641326,-0.07444 2.072661,-0.06364 2.716434,0.02052 2.381259,0.311253 4.484955,1.243224 6.284859,2.784294 4.136619,3.541755 5.322472,9.436434 2.878648,14.309279 -1.796025,3.581172 -5.286583,6.011979 -9.292081,6.470961 -0.684622,0.07846 -1.987836,0.07756 -2.649969,-0.0019 z m 2.962774,-1.792445 c 1.072062,-0.182441 1.889139,-0.444707 2.854734,-0.916312 1.310285,-0.639954 2.490434,-1.58486 3.413085,-2.732744 1.183803,-1.472788 1.892865,-3.143236 2.161598,-5.092416 0.06978,-0.506145 0.07079,-2.018689 0.0017,-2.505047 -0.236908,-1.667081 -0.76988,-3.089574 -1.64445,-4.38901 -2.261363,-3.359928 -6.276503,-5.042203 -10.273163,-4.304283 -2.020434,0.373041 -3.810427,1.323447 -5.294784,2.811291 -1.618373,1.622177 -2.552278,3.520928 -2.882893,5.861298 -0.08216,0.581632 -0.07079,2.09312 0.02024,2.691374 0.514131,3.378523 2.554099,6.191526 5.555042,7.660094 0.973482,0.476393 1.813622,0.744388 2.855749,0.910951 0.707621,0.1131 0.767651,0.116508 1.802398,0.102432 0.702302,-0.0095 1.054493,-0.0336 1.43076,-0.09762 z"
     id="path4" /><path
     style="fill:#2f3542;fill-opacity:1;stroke-width:0.0414058"
     d="m 49.182349,60.874426 c -0.439586,-0.203522 -0.637049,-0.71871 -0.438079,-1.14297 0.0517,-0.110232 0.681535,-0.76801 1.883052,-1.966595 0.992958,-0.990534 1.805378,-1.819764 1.805378,-1.842732 0,-0.02297 -0.820014,-0.861516 -1.822252,-1.863438 -1.982567,-1.981939 -1.975466,-1.973197 -1.936106,-2.382818 0.05779,-0.601351 0.757521,-0.959341 1.274594,-0.652089 0.274168,0.162916 4.451454,4.362142 4.531611,4.555415 0.08576,0.2068 0.07912,0.513448 -0.0155,0.715579 -0.108936,0.232671 -4.395404,4.505931 -4.608511,4.594307 -0.205085,0.08504 -0.471316,0.07926 -0.674173,-0.01466 z"
     id="path5" /><path
     style="fill:#2f3542;fill-opacity:1;stroke-width:0.0414058"
     d="m 58.105288,56.126 c -0.19006,-0.08135 -4.48623,-4.3647 -4.603199,-4.58947 -0.127195,-0.244422 -0.09445,-0.605576 0.07727,-0.852332 0.07128,-0.102432 1.086167,-1.139268 2.255304,-2.304101 2.035796,-2.0283 2.135149,-2.120661 2.349039,-2.183691 0.28508,-0.08401 0.495305,-0.05131 0.740729,0.115212 0.32964,0.22366 0.459313,0.633099 0.319546,1.008953 -0.06205,0.166865 -0.345903,0.470105 -1.898907,2.028615 l -1.825951,1.832424 1.829566,1.831984 c 1.248966,1.25062 1.849842,1.88084 1.893465,1.985927 0.288315,0.694546 -0.446005,1.422157 -1.136864,1.126482 z"
     id="path6" /></svg>
